<svg width="220" height="363" viewBox="0 0 220 363" fill="none" xmlns="http://www.w3.org/2000/svg">
<path fill-rule="evenodd" clip-rule="evenodd" d="M0 72.3773L109.679 0L219.359 72.3773L109.679 11.135L0 72.3773ZM0 273.92L109.679 363L219.359 268.353L109.679 351.865L0 273.92Z" fill="#F5F5F5"/>
<path d="M109.73 107.301C91.617 107.301 76.9325 121.985 76.9325 140.098C76.9325 158.211 91.617 172.896 109.73 172.896C127.843 172.896 142.528 158.211 142.528 140.098C142.528 121.985 127.843 107.301 109.73 107.301ZM85.7303 124.508L87.0564 125.834V134.211L82.9486 130.071C83.6602 128.098 84.6306 126.255 85.7303 124.508ZM109.73 168.691C93.9459 168.691 81.1373 155.882 81.1373 140.098C81.1373 137.155 81.5902 134.308 82.3988 131.656L87.0888 136.346V145.564L87.0564 145.597L94.5604 153.101C93.396 154.783 93.5577 157.111 95.0456 158.599C96.7275 160.281 99.4445 160.281 101.126 158.599C102.808 156.917 102.808 154.2 101.126 152.519C99.6385 151.031 97.3097 150.869 95.6278 152.033L88.5766 144.982V137.866L93.5577 142.847C92.3933 144.529 92.555 146.858 94.0429 148.346C95.7248 150.028 98.4418 150.028 100.124 148.346C101.806 146.664 101.806 143.947 100.124 142.265C98.6358 140.777 96.307 140.616 94.6251 141.78L88.5766 135.732V125.252L86.6036 123.279C87.2828 122.341 88.0268 121.468 88.803 120.627L94.3987 126.158V132.821L94.3663 132.853L107.628 146.114C106.463 147.796 106.625 150.125 108.113 151.613C109.795 153.295 112.512 153.295 114.194 151.613C115.876 149.931 115.876 147.214 114.194 145.532C112.706 144.044 110.377 143.882 108.695 145.047L95.8865 132.238V125.575L89.8704 119.527C90.2909 119.139 90.7114 118.751 91.1642 118.363L121.051 148.249C119.886 149.931 120.048 152.26 121.536 153.748C123.25 155.462 126.064 155.43 127.746 153.618C129.299 151.936 129.234 149.284 127.649 147.667C126.161 146.147 123.8 145.985 122.118 147.182L92.3286 117.392C92.7814 117.036 93.2666 116.681 93.7841 116.357L104.037 126.61H110.668L115.196 131.139C114.032 132.821 114.194 135.149 115.682 136.637C117.363 138.319 120.08 138.319 121.762 136.637C123.444 134.955 123.444 132.238 121.762 130.556C120.274 129.069 117.946 128.907 116.264 130.071L111.283 125.09H104.652L95.0456 115.549C97.9242 113.834 101.159 112.573 104.587 111.958L110.377 117.748C109.213 119.43 109.374 121.759 110.862 123.247C112.544 124.928 115.261 124.928 116.943 123.247C118.625 121.565 118.625 118.848 116.943 117.166C115.455 115.678 113.126 115.516 111.444 116.681L106.431 111.699C107.498 111.57 108.598 111.505 109.73 111.505C125.514 111.505 138.323 124.314 138.323 140.098C138.323 155.882 125.514 168.691 109.73 168.691ZM96.1129 153.554C97.2127 152.454 98.9916 152.454 100.091 153.554C101.191 154.653 101.191 156.432 100.091 157.532C98.9916 158.632 97.2127 158.632 96.1129 157.532C95.0132 156.432 95.0132 154.653 96.1129 153.554ZM95.1103 143.3C96.21 142.201 97.9889 142.201 99.0887 143.3C100.188 144.4 100.188 146.179 99.0887 147.279C97.9889 148.378 96.21 148.378 95.1103 147.279C94.0105 146.211 94.0105 144.4 95.1103 143.3ZM109.148 146.567C110.248 145.467 112.027 145.467 113.126 146.567C114.226 147.667 114.226 149.446 113.126 150.546C112.027 151.645 110.248 151.645 109.148 150.546C108.08 149.446 108.08 147.667 109.148 146.567ZM122.571 148.734C123.671 147.634 125.45 147.634 126.549 148.734C127.649 149.834 127.649 151.613 126.549 152.713C125.45 153.812 123.671 153.812 122.571 152.713C121.471 151.613 121.471 149.834 122.571 148.734ZM116.749 131.656C117.849 130.556 119.628 130.556 120.727 131.656C121.827 132.756 121.827 134.535 120.727 135.635C119.628 136.734 117.849 136.734 116.749 135.635C115.649 134.535 115.649 132.756 116.749 131.656ZM111.897 118.201C112.997 117.101 114.776 117.101 115.876 118.201C116.975 119.301 116.975 121.079 115.876 122.179C114.776 123.279 112.997 123.279 111.897 122.179C110.797 121.112 110.797 119.301 111.897 118.201Z" fill="#3FC1C9"/>
<path d="M153.713 193.85L130.279 227.862H153.916V229.279H127.546L150.98 195.216H128.963V193.85H153.713ZM160.192 227.811H177.755V229.279H158.724V193.85H160.192V227.811ZM196.785 193.344C205.491 193.344 214.702 200.885 214.702 211.564C214.702 222.244 205.491 229.785 196.785 229.785C188.08 229.785 178.919 222.244 178.919 211.564C178.919 200.885 188.08 193.344 196.785 193.344ZM196.785 228.267C204.63 228.267 213.235 221.485 213.235 211.564C213.235 201.644 204.63 194.862 196.785 194.862C188.991 194.862 180.387 201.644 180.387 211.564C180.387 221.485 188.991 228.267 196.785 228.267Z" fill="#F5F5F5"/>
<path d="M27.7362 193.85H29.204V229.279H27.7362V212.779H6.52913V229.279H5.06134V193.85H6.52913V211.311H27.7362V193.85ZM52.385 193.344C61.0905 193.344 70.3021 200.885 70.3021 211.564C70.3021 222.244 61.0905 229.785 52.385 229.785C43.6794 229.785 34.5184 222.244 34.5184 211.564C34.5184 200.885 43.6794 193.344 52.385 193.344ZM52.385 228.267C60.23 228.267 68.8343 221.485 68.8343 211.564C68.8343 201.644 60.23 194.862 52.385 194.862C44.5905 194.862 35.9862 201.644 35.9862 211.564C35.9862 221.485 44.5905 228.267 52.385 228.267ZM77.0843 227.811H94.6472V229.279H75.6165V193.85H77.0843V227.811ZM120.055 193.85L107.048 211.868V229.279H105.58V211.868L92.6227 193.85H94.3942L106.339 210.451L118.284 193.85H120.055Z" fill="#F5F5F5"/>
<path d="M41.165 240.124C45.6744 240.124 48.7813 243.446 48.7813 247.74C48.7813 251.904 45.6744 255.227 41.165 255.227H37.454V240.124H41.165ZM41.1435 254.623C45.3508 254.623 48.1556 251.581 48.1556 247.74C48.1556 243.77 45.3508 240.728 41.1435 240.728H38.0797V254.623H41.1435ZM53.4202 254.601H61.2738V255.227H52.9886H52.7945V240.124H53.4202H61.0796V240.749H53.4202V247.33H59.5261V247.956H53.4202V254.601ZM77.7146 240.124H78.3835L71.6087 255.227H71.285L64.5317 240.124H65.2006L71.4576 254.148L77.7146 240.124ZM82.5908 254.601H90.4444V255.227H82.1593H81.9651V240.124H82.5908H90.2502V240.749H82.5908V247.33H88.6968V247.956H82.5908V254.601ZM95.1911 254.601H102.678V255.227H94.5654V240.124H95.1911V254.601ZM112.646 239.908C116.357 239.908 120.284 243.123 120.284 247.675C120.284 252.228 116.357 255.443 112.646 255.443C108.935 255.443 105.03 252.228 105.03 247.675C105.03 243.123 108.935 239.908 112.646 239.908ZM112.646 254.795C115.99 254.795 119.658 251.904 119.658 247.675C119.658 243.446 115.99 240.555 112.646 240.555C109.323 240.555 105.655 243.446 105.655 247.675C105.655 251.904 109.323 254.795 112.646 254.795ZM129.001 240.124C132.388 240.124 134.179 242.217 134.179 244.763C134.179 247.373 132.388 249.445 129.001 249.445H125.031V255.227H124.405V240.124H129.001ZM129.087 248.797C131.805 248.797 133.553 247.222 133.553 244.763C133.553 242.26 131.805 240.749 129.087 240.749H125.031V248.797H129.087ZM158.732 255.227L156.812 250.933H148.138L146.218 255.227H145.549L152.303 240.124H152.626L159.401 255.227H158.732ZM148.397 250.329H156.553L152.475 241.203L148.397 250.329ZM163.608 254.601H171.095V255.227H162.983V240.124H163.608V254.601ZM175.734 254.601H183.221V255.227H175.108V240.124H175.734V254.601Z" fill="#3FC1C9"/>
</svg>
