<svg width="212" height="179" viewBox="0 0 212 179" fill="none" xmlns="http://www.w3.org/2000/svg">
<path d="M106.809 0.758881C85.0741 0.758881 67.453 18.38 67.453 40.1154C67.453 61.8507 85.0741 79.4719 106.809 79.4719C128.545 79.4719 146.166 61.8507 146.166 40.1154C146.166 18.38 128.545 0.758881 106.809 0.758881ZM78.0101 21.4075L79.6015 22.9988V33.0514L74.6722 28.0833C75.5261 25.7157 76.6905 23.5034 78.0101 21.4075ZM106.809 74.4262C87.8687 74.4262 72.4987 59.0562 72.4987 40.1154C72.4987 36.5834 73.0421 33.1678 74.0124 29.9852L79.6403 35.6131V46.6748L79.6015 46.7136L88.6061 55.7182C87.2088 57.7365 87.4029 60.5311 89.1883 62.3165C91.2066 64.3348 94.4669 64.3348 96.4852 62.3165C98.5035 60.2982 98.5035 57.0379 96.4852 55.0196C94.6998 53.2342 91.9052 53.0401 89.887 54.4374L81.4257 45.9762V37.4373L87.4029 43.4145C86.0056 45.4328 86.1997 48.2273 87.9851 50.0127C90.0034 52.031 93.2637 52.031 95.282 50.0127C97.3003 47.9944 97.3003 44.7341 95.282 42.7159C93.4966 40.9305 90.702 40.7364 88.6837 42.1337L81.4257 34.8756V22.3002L79.0581 19.9326C79.8732 18.807 80.7659 17.759 81.6974 16.7499L88.4121 23.3869V31.3824L88.3732 31.4212L104.287 47.3346C102.889 49.3529 103.083 52.1474 104.869 53.9328C106.887 55.9511 110.147 55.9511 112.166 53.9328C114.184 51.9146 114.184 48.6543 112.166 46.636C110.38 44.8506 107.586 44.6565 105.567 46.0538L90.1975 30.6838V22.6883L82.9782 15.4302C83.4828 14.9645 83.9874 14.4987 84.5307 14.033L120.394 49.8963C118.997 51.9146 119.191 54.7091 120.976 56.4945C123.033 58.5516 126.41 58.5128 128.428 56.3393C130.291 54.321 130.214 51.1383 128.312 49.1976C126.527 47.3734 123.693 47.1794 121.675 48.6154L85.928 12.8686C86.4714 12.4416 87.0536 12.0147 87.6746 11.6266L99.9784 23.9303H107.935L113.369 29.3641C111.972 31.3824 112.166 34.177 113.951 35.9624C115.969 37.9807 119.23 37.9807 121.248 35.9624C123.266 33.9441 123.266 30.6838 121.248 28.6655C119.463 26.8801 116.668 26.686 114.65 28.0833L108.672 22.1061H100.716L89.1883 10.6562C92.6427 8.59913 96.524 7.08542 100.638 6.34797L107.586 13.2955C106.188 15.3138 106.383 18.1083 108.168 19.8937C110.186 21.912 113.447 21.912 115.465 19.8937C117.483 17.8755 117.483 14.6152 115.465 12.5969C113.679 10.8115 110.885 10.6174 108.867 12.0147L102.851 6.03746C104.131 5.88221 105.451 5.80459 106.809 5.80459C125.75 5.80459 141.12 21.1746 141.12 40.1154C141.12 59.0562 125.75 74.4262 106.809 74.4262ZM90.4691 56.2616C91.7888 54.942 93.9235 54.942 95.2432 56.2616C96.5628 57.5813 96.5628 59.716 95.2432 61.0356C93.9235 62.3553 91.7888 62.3553 90.4691 61.0356C89.1495 59.716 89.1495 57.5813 90.4691 56.2616ZM89.2659 43.9579C90.5856 42.6382 92.7203 42.6382 94.04 43.9579C95.3596 45.2775 95.3596 47.4122 94.04 48.7319C92.7203 50.0515 90.5856 50.0515 89.2659 48.7319C87.9463 47.4511 87.9463 45.2775 89.2659 43.9579ZM106.111 47.878C107.43 46.5584 109.565 46.5584 110.885 47.878C112.204 49.1976 112.204 51.3324 110.885 52.652C109.565 53.9717 107.43 53.9717 106.111 52.652C104.83 51.3324 104.83 49.1976 106.111 47.878ZM122.218 50.4785C123.538 49.1588 125.673 49.1588 126.992 50.4785C128.312 51.7981 128.312 53.9328 126.992 55.2525C125.673 56.5721 123.538 56.5721 122.218 55.2525C120.899 53.9328 120.899 51.7981 122.218 50.4785ZM115.232 29.9852C116.552 28.6655 118.686 28.6655 120.006 29.9852C121.326 31.3048 121.326 33.4395 120.006 34.7592C118.686 36.0788 116.552 36.0788 115.232 34.7592C113.912 33.4395 113.912 31.3048 115.232 29.9852ZM109.41 13.8389C110.73 12.5193 112.864 12.5193 114.184 13.8389C115.504 15.1585 115.504 17.2933 114.184 18.6129C112.864 19.9326 110.73 19.9326 109.41 18.6129C108.09 17.3321 108.09 15.1585 109.41 13.8389Z" fill="#3FC1C9"/>
<path d="M23.3179 160.144C28.7291 160.144 32.4573 164.132 32.4573 169.284C32.4573 174.281 28.7291 178.268 23.3179 178.268H18.8647V160.144H23.3179ZM23.292 177.543C28.3407 177.543 31.7065 173.892 31.7065 169.284C31.7065 164.52 28.3407 160.869 23.292 160.869H19.6155V177.543H23.292V177.543ZM38.0239 177.517H47.4481V178.268H37.506H37.273V160.144H38.0239H47.2151V160.895H38.0239V168.792H45.3509V169.543H38.0239V177.517ZM67.1768 160.144H67.9794L59.8497 178.268H59.4614L51.3576 160.144H52.1602L59.6685 176.973L67.1768 160.144ZM73.0281 177.517H82.4523V178.268H72.5103H72.2773V160.144H73.0281H82.2193V160.895H73.0281V168.792H80.3552V169.543H73.0281V177.517ZM88.1483 177.517H97.1324V178.268H87.3975V160.144H88.1483V177.517V177.517ZM109.094 159.885C113.547 159.885 118.259 163.743 118.259 169.206C118.259 174.669 113.547 178.527 109.094 178.527C104.641 178.527 99.9545 174.669 99.9545 169.206C99.9545 163.743 104.641 159.885 109.094 159.885V159.885ZM109.094 177.75C113.107 177.75 117.508 174.281 117.508 169.206C117.508 164.131 113.107 160.662 109.094 160.662C105.107 160.662 100.705 164.131 100.705 169.206C100.705 174.281 105.107 177.75 109.094 177.75ZM128.719 160.144C132.784 160.144 134.933 162.656 134.933 165.711C134.933 168.844 132.784 171.329 128.719 171.329H123.955V178.268H123.204V160.144H128.719ZM128.823 170.552C132.085 170.552 134.182 168.662 134.182 165.711C134.182 162.708 132.085 160.895 128.823 160.895H123.955V170.552H128.823ZM164.396 178.268L162.092 173.116H151.684L149.38 178.268H148.577L156.681 160.144H157.069L165.199 178.268H164.396V178.268ZM151.995 172.391H161.782L156.888 161.439L151.995 172.391ZM170.248 177.517H179.232V178.268H169.497V160.144H170.248V177.517ZM184.798 177.517H193.782V178.268H184.048V160.144H184.798V177.517Z" fill="#3FC1C9"/>
<path d="M0.644263 104.04H9.30447V121.452H18.0562V104.04H25.4052V128.862H22.3863V129.96H25.4052V147.738H18.2086C18.1069 147.738 18.0561 147.687 18.0561 147.586V128.71H9.30438V147.586C9.30438 147.687 9.25355 147.738 9.15191 147.738H1.89438V124.959H0.644119V104.04L0.644263 104.04ZM25.4056 128.862H29.2782V129.96H25.4056V128.862ZM45.806 104.04C52.0675 104.04 56.184 106.236 58.1562 110.627C59.2744 112.762 59.8334 116.878 59.8334 122.977V123.191H56.6009V124.654H59.8334V140.42H57.6988V146.122H53.4602V147.738H38.6401V146.122H36.8104V140.42H32.9987V135.967H35.2857V133.65H32.9987V135.967H27.6012V133.65H31.6875C31.6468 130.072 31.6265 127.338 31.6265 125.447V121.727C31.6265 114.814 32.7954 110.19 35.1332 107.852C37.2881 105.31 40.8456 104.04 45.8062 104.04L45.806 104.04ZM40.4695 119.104L40.5305 119.104L40.4696 119.226V123.19H37.1762V124.654H40.4696C40.4086 130.935 40.3781 135.682 40.3781 138.894V140.419H47.6968V138.01H51.0511V137.949C51.0511 134.981 51.0308 130.844 50.9901 125.538C50.9901 125.314 51.0105 124.745 51.0511 123.83C51.0511 118.077 50.7157 114.55 50.0448 113.249C49.3536 111.988 48.083 111.358 46.233 111.358H45.1353C42.9397 111.358 41.5774 112.324 41.049 114.255C40.8051 115.231 40.612 116.847 40.4696 119.103L40.4695 119.104ZM59.8334 123.19H65.0784V124.654H59.8334V123.19ZM60.1993 124.928H60.3518C60.4738 124.928 60.5653 125.223 60.6263 125.812C60.7076 125.812 60.8296 125.518 60.9922 124.928H61.2057C61.3276 124.928 61.4293 125.243 61.5106 125.873H61.5716L61.785 124.928H62.151V125.02C61.9274 126.077 61.7647 126.605 61.6631 126.605H61.3582C61.3582 126.524 61.287 126.209 61.1447 125.66H61.0837C61.0024 126.29 60.9007 126.605 60.7788 126.605H60.4738C60.3315 125.975 60.1892 125.447 60.0469 125.02L60.1993 124.928ZM60.3508 127.124H60.6252C60.7472 127.124 60.8997 127.469 61.0826 128.16H61.1436C61.1436 128.059 61.2351 127.713 61.418 127.124H61.9364V128.801H61.5705V127.947H61.5095C61.3672 128.516 61.2452 128.801 61.1436 128.801H60.9301C60.7878 128.354 60.7167 128.089 60.7167 128.008H60.6252C60.6252 128.537 60.5744 128.801 60.4727 128.801H60.1983V127.276C60.2186 127.174 60.2694 127.124 60.3508 127.124L60.3508 127.124ZM60.1078 129.319L60.4128 129.319C60.6567 129.462 60.7787 129.635 60.7787 129.838C60.799 129.838 60.9414 129.665 61.2056 129.32H61.5106V129.472L61.0837 130.112C61.0837 130.153 61.2463 130.427 61.5716 130.936V130.997H61.2056L60.7787 130.478C60.6161 130.824 60.4941 130.997 60.4128 130.997H60.0468C60.3924 130.488 60.5653 130.194 60.5653 130.112C60.2603 129.665 60.1079 129.401 60.1079 129.319L60.1078 129.319ZM60.3508 131.515H60.7777C61.2656 131.515 61.5095 131.688 61.5095 132.033V132.094L61.3571 132.308C61.4384 132.308 61.5095 132.389 61.5705 132.552V132.826C61.4689 133.07 61.225 133.192 60.8387 133.192H60.1983V131.667C60.2186 131.566 60.2695 131.515 60.3508 131.515V131.515ZM60.6256 131.881V132.186H61.083V131.881H60.6256ZM49.3127 131.881H49.7396V132.46H50.258V132.033C50.2784 131.932 50.3292 131.881 50.4105 131.881H50.685V133.497H50.2581V132.826H49.7396V133.497H49.3127V131.881L49.3127 131.881ZM60.6256 132.46V132.826H61.144V132.613C61.144 132.511 61.0932 132.46 60.9915 132.46H60.6256L60.6256 132.46ZM60.3508 133.71L61.2961 133.71C61.3774 133.731 61.418 133.782 61.418 133.863V134.076H60.6252V134.351H61.3571V134.717H60.6252V135.022H61.418V135.388H60.1983V133.863C60.2186 133.761 60.2694 133.71 60.3508 133.71L60.3508 133.71ZM49.3127 134.076H50.5325V134.229C50.5325 134.412 50.2885 134.778 49.8006 135.327C50.3495 135.327 50.624 135.367 50.624 135.449V135.693H49.2212V135.388C49.5872 134.961 49.8311 134.646 49.9531 134.442H49.3127V134.076V134.076ZM41.6283 136.18C42.0552 136.18 42.2992 136.506 42.3602 137.156C42.3602 137.624 42.0654 137.888 41.4759 137.949C40.988 137.827 40.744 137.563 40.744 137.156C40.744 136.506 41.0388 136.18 41.6283 136.18ZM49.7399 136.272H50.1668C50.1668 136.394 50.3701 136.922 50.7767 137.858H50.4108C50.3091 137.858 50.2583 137.766 50.2583 137.583H49.7399C49.6383 137.583 49.5874 137.675 49.5874 137.858H49.1605V137.797C49.2621 137.614 49.4553 137.105 49.7399 136.272L49.7399 136.272ZM41.2015 136.851V137.156C41.2015 137.441 41.3438 137.583 41.6284 137.583C41.8317 137.543 41.9333 137.4 41.9333 137.156V136.851C41.9333 136.77 41.8317 136.669 41.6284 136.547H41.4759C41.4149 136.547 41.3234 136.648 41.2015 136.851H41.2015ZM49.8923 136.851L49.8008 137.217H50.1057C50.0447 136.973 49.9736 136.851 49.8923 136.851ZM41.4759 138.376C41.8012 138.376 42.0452 138.529 42.2078 138.834V139.047H41.8419C41.8419 138.844 41.6996 138.742 41.415 138.742L41.2015 139.047V139.322C41.2015 139.626 41.3438 139.779 41.6284 139.779C41.6691 139.779 41.791 139.657 41.9944 139.413H42.2993C42.2993 139.82 42.0248 140.064 41.476 140.145C40.9881 140.003 40.7441 139.728 40.7441 139.322C40.8051 138.691 41.049 138.376 41.476 138.376H41.4759ZM63.5841 104.04H72.2443V121.971H70.5671V140.481H83.4662V144.353H80.9048V145.238H83.4662V147.738H75.1108V147.067H63.6449C63.6043 146.579 63.584 146.213 63.584 145.969V136.211H65.7795V134.9H63.584V104.04L63.5841 104.04ZM71.1468 138.193H71.6652C71.9091 138.539 72.0514 138.712 72.0921 138.712C72.2547 138.366 72.3767 138.193 72.458 138.193H72.9154C72.8544 138.356 72.6613 138.651 72.336 139.078C72.4377 139.281 72.6511 139.626 72.9764 140.114H72.458C72.214 139.891 72.0921 139.687 72.0921 139.504C72.0514 139.504 71.8786 139.708 71.5736 140.114H71.1467V140.023L71.7261 139.139V139.078L71.1468 138.193ZM83.4663 144.353H86.6376V145.237H83.4663V144.353ZM89.1382 104.009H97.7375C97.7375 108.217 98.4693 111.795 99.9331 114.743C101.519 118.565 102.596 121.604 103.166 123.861V123.922H103.257C103.989 121.238 105.503 117.081 107.801 111.45C108.39 108.766 108.685 106.286 108.685 104.009H116.766C116.278 108.4 115.668 111.633 114.936 113.706L110.088 124.745H107.13V132.308H102.648V133.772H107.13V147.738H98.7745C98.6729 147.738 98.6221 147.687 98.6221 147.586V140.755H97.3108V128.649H99.7809V127.52H97.0669C96.8433 127.256 95.156 123.465 92.0048 116.146C90.6835 113.218 90.0227 111.45 90.0227 110.84H93.6209V109.315H89.7176C89.3314 106.083 89.1382 104.314 89.1382 104.009L89.1382 104.009ZM83.9236 109.314H89.7176L89.9616 110.839H83.9237V109.314H83.9236ZM107.496 125.02H108.837V125.325L108.014 126.361H108.837V126.575C108.837 126.676 108.787 126.727 108.685 126.727H107.587C107.486 126.727 107.435 126.676 107.435 126.575V126.422L108.258 125.416H107.496V125.02L107.496 125.02ZM107.13 132.308H110.728V133.772H107.13V132.308Z" fill="#F5F5F5"/>
<path d="M125.759 104.009L148.796 104.009V109.555C148.796 109.677 147.618 112.226 145.261 117.203H153.062V119.123H144.439C144.378 119.123 143.595 120.687 142.092 123.816C142.052 124.039 141.29 125.685 139.807 128.752H141.056C139.492 132.186 138.608 134.024 138.405 134.268H134.657V135.974H137.674L135.632 140.362H143.646V142.648H150.868V147.584C150.868 147.686 150.818 147.737 150.716 147.737H138.558V147.005H125.759V142.8H127.587V138.107C127.933 137.213 129.406 134.095 132.006 128.752H130.756V128.661L139.075 111.322H125.759V104.009L125.759 104.009ZM141.148 117.204V119.124H144.225C144.327 119.124 144.652 118.484 145.2 117.204H141.148H141.148ZM152.697 104.071H161.351V121.989H159.675V140.486H172.565V144.356H170.005V145.239H172.565V147.738H164.215V147.068H152.757C152.717 146.58 152.696 146.214 152.696 145.971V136.22H154.89V134.909H152.696V104.071L152.697 104.071ZM160.254 138.2H160.772C161.016 138.545 161.158 138.718 161.199 138.718C161.361 138.373 161.483 138.2 161.564 138.2H162.021C161.96 138.363 161.767 138.657 161.442 139.084C161.544 139.287 161.757 139.632 162.082 140.12H161.564C161.32 139.896 161.198 139.693 161.198 139.51C161.158 139.51 160.985 139.714 160.68 140.12H160.254V140.028L160.833 139.145V139.084L160.254 138.2ZM172.565 144.355H175.734V145.239H172.565V144.355ZM192.402 104.071C198.659 104.071 202.773 106.265 204.743 110.654C205.861 112.787 206.419 116.9 206.419 122.995V123.208H203.189V124.671H206.419V140.425H204.286V146.123H200.051V147.738H185.241V146.123H183.413V140.425H179.604V135.976H181.889V133.66H179.604V135.976H174.21V133.66H178.294C178.253 130.085 178.233 127.352 178.233 125.463V121.745C178.233 114.838 179.401 110.217 181.737 107.88C183.89 105.341 187.445 104.071 192.402 104.071L192.402 104.071ZM187.069 119.124L187.13 119.124L187.069 119.246V123.208H183.778V124.67H187.069C187.008 130.947 186.978 135.691 186.978 138.901V140.424H194.291V138.017H197.643V137.956C197.643 134.99 197.623 130.856 197.582 125.554C197.582 125.33 197.603 124.762 197.643 123.847C197.643 118.098 197.308 114.574 196.638 113.273C195.947 112.014 194.677 111.384 192.829 111.384H191.732C189.538 111.384 188.176 112.349 187.648 114.279C187.405 115.254 187.212 116.869 187.069 119.124L187.069 119.124ZM206.419 123.208H211.661V124.67H206.419V123.208ZM206.785 124.944H206.937C207.059 124.944 207.151 125.239 207.212 125.828C207.293 125.828 207.415 125.534 207.577 124.944H207.791C207.912 124.944 208.014 125.259 208.095 125.889H208.156L208.37 124.944H208.735V125.036C208.512 126.092 208.349 126.62 208.248 126.62H207.943C207.943 126.539 207.872 126.224 207.73 125.676H207.669C207.587 126.306 207.486 126.62 207.364 126.62H207.059C206.917 125.991 206.775 125.463 206.633 125.036L206.785 124.944ZM206.936 127.138H207.211C207.332 127.138 207.485 127.484 207.668 128.174H207.729C207.729 128.073 207.82 127.728 208.003 127.138H208.521V128.814H208.155V127.961H208.094C207.952 128.53 207.83 128.814 207.729 128.814H207.515C207.373 128.367 207.302 128.103 207.302 128.022H207.211C207.211 128.55 207.16 128.814 207.058 128.814H206.784V127.291C206.804 127.189 206.855 127.138 206.936 127.138L206.936 127.138ZM206.694 129.333L206.998 129.333C207.242 129.475 207.364 129.648 207.364 129.851C207.384 129.851 207.526 129.678 207.791 129.333H208.095V129.485L207.669 130.125C207.669 130.166 207.831 130.44 208.156 130.948V131.009H207.791L207.364 130.491C207.201 130.836 207.08 131.009 206.998 131.009H206.633C206.978 130.501 207.151 130.206 207.151 130.125C206.846 129.678 206.694 129.414 206.694 129.333L206.694 129.333ZM206.936 131.527H207.363C207.85 131.527 208.094 131.699 208.094 132.045V132.106L207.942 132.319C208.023 132.319 208.094 132.4 208.155 132.563V132.837C208.054 133.081 207.81 133.203 207.424 133.203H206.784V131.679C206.804 131.577 206.855 131.527 206.936 131.527V131.527ZM207.211 131.892V132.197H207.668V131.892H207.211ZM195.906 131.892H196.333V132.471H196.851V132.045C196.871 131.943 196.922 131.892 197.003 131.892H197.277V133.507H196.851V132.837H196.333V133.507H195.906V131.892L195.906 131.892ZM207.211 132.471V132.837H207.729V132.623C207.729 132.522 207.678 132.471 207.577 132.471H207.211L207.211 132.471ZM206.936 133.72L207.881 133.72C207.962 133.741 208.003 133.792 208.003 133.873V134.086H207.211V134.36H207.942V134.726H207.211V135.031H208.003V135.396H206.784V133.873C206.804 133.771 206.855 133.721 206.936 133.721L206.936 133.72ZM195.906 134.086H197.125V134.239C197.125 134.421 196.881 134.787 196.394 135.336C196.942 135.336 197.216 135.376 197.216 135.457V135.701H195.815V135.397C196.18 134.97 196.424 134.655 196.546 134.452H195.906V134.086V134.086ZM188.227 136.189C188.654 136.189 188.898 136.514 188.959 137.164C188.959 137.631 188.664 137.895 188.075 137.956C187.587 137.834 187.344 137.57 187.344 137.164C187.344 136.514 187.638 136.189 188.227 136.189ZM196.333 136.28H196.76C196.76 136.402 196.963 136.93 197.369 137.865H197.003C196.902 137.865 196.851 137.773 196.851 137.59H196.333C196.231 137.59 196.181 137.682 196.181 137.865H195.754V137.804C195.856 137.621 196.049 137.113 196.333 136.28L196.333 136.28ZM187.801 136.859V137.164C187.801 137.448 187.943 137.591 188.227 137.591C188.43 137.55 188.532 137.408 188.532 137.164V136.859C188.532 136.778 188.43 136.676 188.227 136.555H188.075C188.014 136.555 187.923 136.656 187.801 136.859H187.801ZM196.485 136.859L196.394 137.225H196.699C196.638 136.981 196.567 136.859 196.485 136.859ZM188.075 138.383C188.4 138.383 188.644 138.535 188.806 138.84V139.053H188.441C188.441 138.85 188.298 138.749 188.014 138.749L187.801 139.053V139.328C187.801 139.632 187.943 139.785 188.227 139.785C188.268 139.785 188.39 139.663 188.593 139.419H188.898C188.898 139.825 188.624 140.069 188.075 140.15C187.587 140.008 187.344 139.734 187.344 139.328C187.405 138.698 187.648 138.383 188.075 138.383H188.075Z" fill="#F5F5F5"/>
</svg>
