<svg width="75" height="74" viewBox="0 0 75 74" fill="none" xmlns="http://www.w3.org/2000/svg">
<g filter="url(#filter0_d)">
<path d="M37.7301 0.300613C19.617 0.300613 4.93252 14.9851 4.93252 33.0982C4.93252 51.2112 19.617 65.8957 37.7301 65.8957C55.8431 65.8957 70.5276 51.2112 70.5276 33.0982C70.5276 14.9851 55.8431 0.300613 37.7301 0.300613ZM13.7303 17.508L15.0564 18.8341V27.2114L10.9486 23.0713C11.6602 21.0983 12.6306 19.2546 13.7303 17.508ZM37.7301 61.6909C21.9458 61.6909 9.13733 48.8824 9.13733 33.0982C9.13733 30.1548 9.59016 27.3085 10.3988 24.6562L15.0888 29.3462V38.5644L15.0564 38.5968L22.5604 46.1007C21.396 47.7827 21.5577 50.1115 23.0456 51.5993C24.7275 53.2813 27.4444 53.2813 29.1264 51.5993C30.8083 49.9174 30.8083 47.2005 29.1264 45.5185C27.6385 44.0307 25.3097 43.869 23.6278 45.0334L16.5766 37.9822V30.8664L21.5577 35.8475C20.3933 37.5294 20.555 39.8582 22.0429 41.3461C23.7248 43.028 26.4418 43.028 28.1237 41.3461C29.8056 39.6641 29.8056 36.9472 28.1237 35.2653C26.6358 33.7774 24.307 33.6157 22.6251 34.7801L16.5766 28.7316V18.2519L14.6036 16.2789C15.2828 15.3409 16.0268 14.4676 16.803 13.6266L22.3987 19.1576V25.8206L22.3663 25.8529L35.6277 39.1143C34.4633 40.7962 34.625 43.125 36.1128 44.6129C37.7948 46.2948 40.5117 46.2948 42.1936 44.6129C43.8756 42.931 43.8756 40.214 42.1936 38.5321C40.7058 37.0442 38.377 36.8825 36.695 38.0469L23.8865 25.2384V18.5754L17.8704 12.5269C18.2909 12.1388 18.7114 11.7506 19.1642 11.3625L49.0507 41.249C47.8863 42.931 48.048 45.2598 49.5359 46.7476C51.2502 48.4619 54.0642 48.4296 55.7461 46.6183C57.2986 44.9363 57.2339 42.2841 55.649 40.6668C54.1612 39.1466 51.8 38.9849 50.1181 40.1817L20.3286 10.3922C20.7814 10.0364 21.2666 9.68058 21.7841 9.35714L32.0374 19.6104H38.6681L43.1963 24.1387C42.0319 25.8206 42.1936 28.1494 43.6815 29.6373C45.3634 31.3192 48.0804 31.3192 49.7623 29.6373C51.4442 27.9554 51.4442 25.2384 49.7623 23.5565C48.2744 22.0686 45.9456 21.9069 44.2637 23.0713L39.2826 18.0902H32.6519L23.0456 8.54852C25.9242 6.83425 29.1587 5.5728 32.5873 4.95825L38.377 10.748C37.2126 12.4299 37.3743 14.7587 38.8621 16.2466C40.5441 17.9285 43.261 17.9285 44.9429 16.2466C46.6249 14.5646 46.6249 11.8477 44.9429 10.1658C43.4551 8.6779 41.1263 8.51617 39.4443 9.68058L34.4309 4.6995C35.4983 4.57012 36.598 4.50543 37.7301 4.50543C53.5143 4.50543 66.3228 17.3139 66.3228 33.0982C66.3228 48.8824 53.5143 61.6909 37.7301 61.6909ZM24.1129 46.5536C25.2127 45.4538 26.9916 45.4538 28.0913 46.5536C29.1911 47.6533 29.1911 49.4322 28.0913 50.532C26.9916 51.6317 25.2127 51.6317 24.1129 50.532C23.0132 49.4322 23.0132 47.6533 24.1129 46.5536ZM23.1103 36.3003C24.21 35.2006 25.9889 35.2006 27.0887 36.3003C28.1884 37.4 28.1884 39.179 27.0887 40.2787C25.9889 41.3784 24.21 41.3784 23.1103 40.2787C22.0105 39.2113 22.0105 37.4 23.1103 36.3003ZM37.1479 39.5671C38.2476 38.4674 40.0265 38.4674 41.1263 39.5671C42.226 40.6668 42.226 42.4458 41.1263 43.5455C40.0265 44.6452 38.2476 44.6452 37.1479 43.5455C36.0805 42.4458 36.0805 40.6668 37.1479 39.5671ZM50.5709 41.7342C51.6706 40.6345 53.4496 40.6345 54.5493 41.7342C55.649 42.8339 55.649 44.6129 54.5493 45.7126C53.4496 46.8123 51.6706 46.8123 50.5709 45.7126C49.4712 44.6129 49.4712 42.8339 50.5709 41.7342ZM44.7489 24.6562C45.8486 23.5565 47.6276 23.5565 48.7273 24.6562C49.827 25.7559 49.827 27.5349 48.7273 28.6346C47.6276 29.7343 45.8486 29.7343 44.7489 28.6346C43.6492 27.5349 43.6492 25.7559 44.7489 24.6562ZM39.8972 11.2008C40.9969 10.1011 42.7758 10.1011 43.8756 11.2008C44.9753 12.3005 44.9753 14.0795 43.8756 15.1792C42.7758 16.2789 40.9969 16.2789 39.8972 15.1792C38.7974 14.1118 38.7974 12.3005 39.8972 11.2008Z" fill="#3FC1C9"/>
</g>
<defs>
<filter id="filter0_d" x="0.932518" y="0.300613" width="73.5951" height="73.5951" filterUnits="userSpaceOnUse" color-interpolation-filters="sRGB">
<feFlood flood-opacity="0" result="BackgroundImageFix"/>
<feColorMatrix in="SourceAlpha" type="matrix" values="0 0 0 0 0 0 0 0 0 0 0 0 0 0 0 0 0 0 127 0" result="hardAlpha"/>
<feOffset dy="4"/>
<feGaussianBlur stdDeviation="2"/>
<feComposite in2="hardAlpha" operator="out"/>
<feColorMatrix type="matrix" values="0 0 0 0 0 0 0 0 0 0 0 0 0 0 0 0 0 0 0.25 0"/>
<feBlend mode="normal" in2="BackgroundImageFix" result="effect1_dropShadow"/>
<feBlend mode="normal" in="SourceGraphic" in2="effect1_dropShadow" result="shape"/>
</filter>
</defs>
</svg>
