<svg width="65" height="65" viewBox="0 0 65 65" fill="none" xmlns="http://www.w3.org/2000/svg">
<path d="M32.4 0C14.5065 0 0 14.5065 0 32.4C0 50.2935 14.5065 64.8 32.4 64.8C50.2935 64.8 64.8 50.2935 64.8 32.4C64.8 14.5065 50.2935 0 32.4 0ZM8.69112 16.9988L10.0012 18.3089V26.5846L5.9432 22.4947C6.64615 20.5456 7.60473 18.7243 8.69112 16.9988ZM32.4 60.6462C16.8071 60.6462 4.15385 47.9929 4.15385 32.4C4.15385 29.4923 4.60118 26.6805 5.4 24.0604L10.0331 28.6935V37.8L10.0012 37.832L17.4142 45.245C16.2639 46.9065 16.4237 49.2071 17.8935 50.6769C19.555 52.3385 22.2391 52.3385 23.9006 50.6769C25.5621 49.0154 25.5621 46.3314 23.9006 44.6698C22.4308 43.2 20.1302 43.0402 18.4686 44.1905L11.503 37.2249V30.1953L16.4237 35.116C15.2734 36.7775 15.4331 39.0781 16.903 40.5479C18.5645 42.2095 21.2485 42.2095 22.9101 40.5479C24.5716 38.8864 24.5716 36.2024 22.9101 34.5408C21.4402 33.071 19.1396 32.9112 17.4781 34.0615L11.503 28.0864V17.7337L9.55385 15.7846C10.2249 14.858 10.9598 13.9953 11.7266 13.1645L17.2544 18.6284V25.2107L17.2225 25.2426L30.3231 38.3432C29.1728 40.0047 29.3325 42.3053 30.8024 43.7752C32.4639 45.4367 35.1479 45.4367 36.8095 43.7752C38.471 42.1136 38.471 39.4296 36.8095 37.768C35.3396 36.2982 33.0391 36.1385 31.3775 37.2888L18.7243 24.6355V18.0533L12.7811 12.0781C13.1965 11.6947 13.6118 11.3112 14.0592 10.9278L43.5834 40.4521C42.4331 42.1136 42.5929 44.4142 44.0627 45.884C45.7562 47.5775 48.5361 47.5456 50.1976 45.7562C51.7314 44.0947 51.6675 41.4746 50.1018 39.8769C48.632 38.3752 46.2994 38.2154 44.6379 39.3976L15.2095 9.96923C15.6568 9.61775 16.1361 9.26627 16.6473 8.94675L26.7763 19.0757H33.3266L37.8 23.5491C36.6497 25.2107 36.8095 27.5112 38.2793 28.9811C39.9408 30.6426 42.6249 30.6426 44.2864 28.9811C45.9479 27.3195 45.9479 24.6355 44.2864 22.974C42.8166 21.5041 40.516 21.3444 38.8544 22.4947L33.9337 17.574H27.3834L17.8935 8.14793C20.7373 6.45444 23.9325 5.20828 27.3195 4.60118L33.0391 10.3207C31.8888 11.9822 32.0485 14.2828 33.5183 15.7527C35.1799 17.4142 37.8639 17.4142 39.5254 15.7527C41.187 14.0911 41.187 11.4071 39.5254 9.74556C38.0556 8.27574 35.755 8.11598 34.0935 9.26627L29.1408 4.34556C30.1953 4.21775 31.2817 4.15385 32.4 4.15385C47.9929 4.15385 60.6462 16.8071 60.6462 32.4C60.6462 47.9929 47.9929 60.6462 32.4 60.6462ZM18.9479 45.6923C20.0343 44.6059 21.7917 44.6059 22.8781 45.6923C23.9645 46.7787 23.9645 48.5361 22.8781 49.6225C21.7917 50.7089 20.0343 50.7089 18.9479 49.6225C17.8615 48.5361 17.8615 46.7787 18.9479 45.6923ZM17.9574 35.5633C19.0438 34.4769 20.8012 34.4769 21.8876 35.5633C22.974 36.6497 22.974 38.4071 21.8876 39.4935C20.8012 40.5799 19.0438 40.5799 17.9574 39.4935C16.871 38.4391 16.871 36.6497 17.9574 35.5633ZM31.8249 38.7905C32.9112 37.7041 34.6686 37.7041 35.755 38.7905C36.8414 39.8769 36.8414 41.6343 35.755 42.7207C34.6686 43.8071 32.9112 43.8071 31.8249 42.7207C30.7704 41.6343 30.7704 39.8769 31.8249 38.7905ZM45.0852 40.9314C46.1716 39.845 47.929 39.845 49.0154 40.9314C50.1018 42.0178 50.1018 43.7751 49.0154 44.8615C47.929 45.9479 46.1716 45.9479 45.0852 44.8615C43.9988 43.7751 43.9988 42.0178 45.0852 40.9314ZM39.3337 24.0604C40.4201 22.974 42.1775 22.974 43.2639 24.0604C44.3503 25.1467 44.3503 26.9041 43.2639 27.9905C42.1775 29.0769 40.4201 29.0769 39.3337 27.9905C38.2473 26.9041 38.2473 25.1467 39.3337 24.0604ZM34.5408 10.768C35.6272 9.68166 37.3846 9.68166 38.471 10.768C39.5574 11.8544 39.5574 13.6118 38.471 14.6982C37.3846 15.7846 35.6272 15.7846 34.5408 14.6982C33.4544 13.6438 33.4544 11.8544 34.5408 10.768Z" fill="#F5F5F5"/>
</svg>
