<svg width="548" height="363" viewBox="0 0 548 363" fill="none" xmlns="http://www.w3.org/2000/svg">
<rect width="548" height="363" fill="black"/>
<path fill-rule="evenodd" clip-rule="evenodd" d="M164 72.3773L273.679 0L383.359 72.3773L273.679 11.135L164 72.3773ZM164 273.92L273.679 363L383.359 268.353L273.679 351.865L164 273.92Z" fill="#F5F5F5"/>
<path d="M273.73 107.301C255.617 107.301 240.933 121.985 240.933 140.098C240.933 158.211 255.617 172.896 273.73 172.896C291.843 172.896 306.528 158.211 306.528 140.098C306.528 121.985 291.843 107.301 273.73 107.301ZM249.73 124.508L251.056 125.834V134.211L246.949 130.071C247.66 128.098 248.631 126.255 249.73 124.508ZM273.73 168.691C257.946 168.691 245.137 155.882 245.137 140.098C245.137 137.155 245.59 134.308 246.399 131.656L251.089 136.346V145.564L251.056 145.597L258.56 153.101C257.396 154.783 257.558 157.111 259.046 158.599C260.727 160.281 263.444 160.281 265.126 158.599C266.808 156.917 266.808 154.2 265.126 152.519C263.639 151.031 261.31 150.869 259.628 152.033L252.577 144.982V137.866L257.558 142.847C256.393 144.529 256.555 146.858 258.043 148.346C259.725 150.028 262.442 150.028 264.124 148.346C265.806 146.664 265.806 143.947 264.124 142.265C262.636 140.777 260.307 140.616 258.625 141.78L252.577 135.732V125.252L250.604 123.279C251.283 122.341 252.027 121.468 252.803 120.627L258.399 126.158V132.821L258.366 132.853L271.628 146.114C270.463 147.796 270.625 150.125 272.113 151.613C273.795 153.295 276.512 153.295 278.194 151.613C279.876 149.931 279.876 147.214 278.194 145.532C276.706 144.044 274.377 143.882 272.695 145.047L259.887 132.238V125.575L253.87 119.527C254.291 119.139 254.711 118.751 255.164 118.363L285.051 148.249C283.886 149.931 284.048 152.26 285.536 153.748C287.25 155.462 290.064 155.43 291.746 153.618C293.299 151.936 293.234 149.284 291.649 147.667C290.161 146.147 287.8 145.985 286.118 147.182L256.329 117.392C256.781 117.036 257.267 116.681 257.784 116.357L268.037 126.61H274.668L279.196 131.139C278.032 132.821 278.194 135.149 279.682 136.637C281.363 138.319 284.08 138.319 285.762 136.637C287.444 134.955 287.444 132.238 285.762 130.556C284.274 129.069 281.946 128.907 280.264 130.071L275.283 125.09H268.652L259.046 115.549C261.924 113.834 265.159 112.573 268.587 111.958L274.377 117.748C273.213 119.43 273.374 121.759 274.862 123.247C276.544 124.928 279.261 124.928 280.943 123.247C282.625 121.565 282.625 118.848 280.943 117.166C279.455 115.678 277.126 115.516 275.444 116.681L270.431 111.699C271.498 111.57 272.598 111.505 273.73 111.505C289.514 111.505 302.323 124.314 302.323 140.098C302.323 155.882 289.514 168.691 273.73 168.691ZM260.113 153.554C261.213 152.454 262.992 152.454 264.091 153.554C265.191 154.653 265.191 156.432 264.091 157.532C262.992 158.632 261.213 158.632 260.113 157.532C259.013 156.432 259.013 154.653 260.113 153.554ZM259.11 143.3C260.21 142.201 261.989 142.201 263.089 143.3C264.188 144.4 264.188 146.179 263.089 147.279C261.989 148.378 260.21 148.378 259.11 147.279C258.011 146.211 258.011 144.4 259.11 143.3ZM273.148 146.567C274.248 145.467 276.027 145.467 277.126 146.567C278.226 147.667 278.226 149.446 277.126 150.546C276.027 151.645 274.248 151.645 273.148 150.546C272.08 149.446 272.08 147.667 273.148 146.567ZM286.571 148.734C287.671 147.634 289.45 147.634 290.549 148.734C291.649 149.834 291.649 151.613 290.549 152.713C289.45 153.812 287.671 153.812 286.571 152.713C285.471 151.613 285.471 149.834 286.571 148.734ZM280.749 131.656C281.849 130.556 283.628 130.556 284.727 131.656C285.827 132.756 285.827 134.535 284.727 135.635C283.628 136.734 281.849 136.734 280.749 135.635C279.649 134.535 279.649 132.756 280.749 131.656ZM275.897 118.201C276.997 117.101 278.776 117.101 279.876 118.201C280.975 119.301 280.975 121.079 279.876 122.179C278.776 123.279 276.997 123.279 275.897 122.179C274.797 121.112 274.797 119.301 275.897 118.201Z" fill="#3FC1C9"/>
<path d="M317.713 193.85L294.279 227.862H317.916V229.279H291.546L314.98 195.216H292.963V193.85H317.713ZM324.192 227.811H341.755V229.279H322.724V193.85H324.192V227.811ZM360.785 193.344C369.491 193.344 378.702 200.885 378.702 211.564C378.702 222.244 369.491 229.785 360.785 229.785C352.08 229.785 342.919 222.244 342.919 211.564C342.919 200.885 352.08 193.344 360.785 193.344ZM360.785 228.267C368.63 228.267 377.235 221.485 377.235 211.564C377.235 201.644 368.63 194.862 360.785 194.862C352.991 194.862 344.387 201.644 344.387 211.564C344.387 221.485 352.991 228.267 360.785 228.267Z" fill="#F5F5F5"/>
<path d="M191.736 193.85H193.204V229.279H191.736V212.779H170.529V229.279H169.061V193.85H170.529V211.311H191.736V193.85ZM216.385 193.344C225.09 193.344 234.302 200.885 234.302 211.564C234.302 222.244 225.09 229.785 216.385 229.785C207.679 229.785 198.518 222.244 198.518 211.564C198.518 200.885 207.679 193.344 216.385 193.344ZM216.385 228.267C224.23 228.267 232.834 221.485 232.834 211.564C232.834 201.644 224.23 194.862 216.385 194.862C208.59 194.862 199.986 201.644 199.986 211.564C199.986 221.485 208.59 228.267 216.385 228.267ZM241.084 227.811H258.647V229.279H239.617V193.85H241.084V227.811ZM284.055 193.85L271.048 211.868V229.279H269.58V211.868L256.623 193.85H258.394L270.339 210.451L282.284 193.85H284.055Z" fill="#F5F5F5"/>
<path d="M205.165 240.124C209.674 240.124 212.781 243.446 212.781 247.74C212.781 251.904 209.674 255.227 205.165 255.227H201.454V240.124H205.165ZM205.143 254.623C209.351 254.623 212.156 251.581 212.156 247.74C212.156 243.77 209.351 240.728 205.143 240.728H202.08V254.623H205.143ZM217.42 254.601H225.274V255.227H216.989H216.794V240.124H217.42H225.08V240.749H217.42V247.33H223.526V247.956H217.42V254.601ZM241.715 240.124H242.383L235.609 255.227H235.285L228.532 240.124H229.201L235.458 254.148L241.715 240.124ZM246.591 254.601H254.444V255.227H246.159H245.965V240.124H246.591H254.25V240.749H246.591V247.33H252.697V247.956H246.591V254.601ZM259.191 254.601H266.678V255.227H258.565V240.124H259.191V254.601ZM276.646 239.908C280.357 239.908 284.284 243.123 284.284 247.675C284.284 252.228 280.357 255.443 276.646 255.443C272.935 255.443 269.03 252.228 269.03 247.675C269.03 243.123 272.935 239.908 276.646 239.908ZM276.646 254.795C279.99 254.795 283.658 251.904 283.658 247.675C283.658 243.446 279.99 240.555 276.646 240.555C273.323 240.555 269.655 243.446 269.655 247.675C269.655 251.904 273.323 254.795 276.646 254.795ZM293.001 240.124C296.388 240.124 298.179 242.217 298.179 244.763C298.179 247.373 296.388 249.445 293.001 249.445H289.031V255.227H288.405V240.124H293.001ZM293.087 248.797C295.805 248.797 297.553 247.222 297.553 244.763C297.553 242.26 295.805 240.749 293.087 240.749H289.031V248.797H293.087ZM322.732 255.227L320.812 250.933H312.138L310.218 255.227H309.549L316.303 240.124H316.626L323.401 255.227H322.732ZM312.397 250.329H320.553L316.475 241.203L312.397 250.329ZM327.608 254.601H335.095V255.227H326.983V240.124H327.608V254.601ZM339.734 254.601H347.221V255.227H339.108V240.124H339.734V254.601Z" fill="#3FC1C9"/>
</svg>
